<?xml version="1.0" encoding="utf-8"?>
<!-- Svg Vector Icons : http://www.onlinewebfonts.com/icon -->
<!DOCTYPE svg PUBLIC "-//W3C//DTD SVG 1.1//EN" "http://www.w3.org/Graphics/SVG/1.1/DTD/svg11.dtd">
<svg version="1.1" xmlns="http://www.w3.org/2000/svg" xmlns:xlink="http://www.w3.org/1999/xlink" x="0px" y="0px" viewBox="0 0 256 256" enable-background="new 0 0 256 256" xml:space="preserve">
<metadata> Svg Vector Icons : http://www.onlinewebfonts.com/icon </metadata>
<g><g><g><path fill="#000000" d="M83.6,11.9c-1.7,1.7-1.9,3.1-1.9,15.1v13.1l-24.5,0.3c-31.6,0.4-28.8-1.9-28.8,22.9c0,17.6,0.1,18.4,2.1,20.4c1.3,1.4,3.6,2.2,6.8,2.5l4.8,0.5v77.6v77.6l2.2,2l2.2,2.1h81.8H210l1.9-2.5c2-2.6,2-3,2-79.7V86.7l4.8-0.5c3.2-0.4,5.5-1.1,6.8-2.5c2-2,2.1-2.8,2.1-20.4c0-24.8,2.8-22.6-28.8-22.9l-24.5-0.3V27c0-12-0.2-13.4-1.9-15.1c-1.8-1.8-3.1-1.9-44.4-1.9C86.7,10,85.4,10.1,83.6,11.9z M160.1,32.2v8H128H95.9v-8v-8H128h32.1V32.2z M213,63.3v8h-85H43v-8v-8h85h85V63.3z M81.7,136.5c0,48.8,0.1,50.1,1.9,51.9c2.9,2.9,6.8,2.8,10.2-0.3l2.1-1.9v-49.9V86.5h12.3h12.3v49.5v49.6l2.2,2.5c2.8,3.3,7.5,3.5,10.4,0.5l2.1-2.1l0.3-49.9l0.3-50h12.2h12.3v49.8v49.9l2.2,1.9c3.3,3.1,7.2,3.2,10.1,0.3c1.8-1.8,1.9-3.1,1.9-51.9v-50H187h12.7v72.7v72.7H128H56.3v-72.7V86.5H69h12.7V136.5z"/></g></g></g>
</svg>