<?xml version="1.0" encoding="utf-8"?>
<!-- Svg Vector Icons : http://www.onlinewebfonts.com/icon -->
<!DOCTYPE svg PUBLIC "-//W3C//DTD SVG 1.1//EN" "http://www.w3.org/Graphics/SVG/1.1/DTD/svg11.dtd">
<svg version="1.1" xmlns="http://www.w3.org/2000/svg" xmlns:xlink="http://www.w3.org/1999/xlink" x="0px" y="0px" viewBox="0 0 256 256" enable-background="new 0 0 256 256" xml:space="preserve">
<metadata> Svg Vector Icons : http://www.onlinewebfonts.com/icon </metadata>
<g><g><path fill="#000000" d="M150.1,219H28.2V82.8h45.7V37h76.2v19.1l16.9-16.9l1.3-1.3V18.8H55.7V19L10,64.6v172.6h158.3v-81.6l-18.2,18.2L150.1,219L150.1,219z"/><path fill="#000000" d="M80.3,151.5L80.3,151.5L80.3,151.5L80.3,151.5L80.3,151.5l-16,49.1l49.1-15.9l0,0l0,0l0,0l99.5-99.4l-33.1-33.2L80.3,151.5z M179.9,69.2l5.5,5.4l-82.2,82.2l-5.5-5.5L179.9,69.2z"/><path fill="#000000" d="M212.9,19L191,40.8L224.2,74L246,52.1L212.9,19z"/></g></g>
</svg>